:SAMPLES-PER-SECOND 30
:FULLY-SPECIFIED
:DEGREES
93
root  -38.7107 36.5209 -29.3458 -84.1004 -85.369 117.412
RightUpLeg  -74.4994 -17.4774 15.4536
RightLeg  43.3885 -2.16407 -2.50056
RightFoot  -3.32914 0.865065 -12.6022
RightToes  0.00048216 0.542163 -0.142577
Spine  74.7781 -6.47439 8.19758
Spine1  1.21154 1.18421 -6.98166
HEad  -42.9217 -10.1311 4.51363
LeftShoulder1  8.20076 -29.7721 -17.7691
LeftArm  -78.4754 -63.7528 32.145
LeftForeArm  0.116677 -7.05475 0.0535135
LeftHand  -0.25398 0.0180481 5.50724
RightShoulder  3.10315 19.0817 5.98704
RightArm  -64.4529 47.605 -28.2216
RightForeArm  -17.4181 -0.221083 1.53558
RightHand  -0.50455 8.60687 -4.66264
LeftUpLeg  -70.1049 10.4223 -16.1149
LeftLeg  37.1077 -0.853532 -0.320597
LeftFoot  -0.298934 -0.528869 5.48185
LeftToes  1.06245e-005 4.65855e-005 -8.18504e-006
94
root  -39.1388 36.4258 -29.3902 -85.6175 -85.4874 120.867
RightUpLeg  -76.1665 -16.5668 15.7748
RightLeg  44.3159 -2.59525 -3.02797
RightFoot  -4.29598 0.725541 -12.1925
RightToes  0.00048216 0.542163 -0.142577
Spine  75.8549 -6.18957 7.85897
Spine1  0.174112 1.04828 -6.7117
HEad  -43.2633 -9.53954 4.05701
LeftShoulder1  7.82416 -29.7105 -16.6007
LeftArm  -81.3507 -62.7084 34.3032
LeftForeArm  -2.04582 -8.991 0.442523
LeftHand  -0.25398 0.0180481 5.50724
RightShoulder  2.47473 18.0531 3.46679
RightArm  -66.3618 47.6778 -26.9766
RightForeArm  -20.402 1.59904 1.24261
RightHand  -0.516753 9.89601 -4.42611
LeftUpLeg  -72.0647 9.90007 -15.6622
LeftLeg  38.3969 -0.20877 0.198008
LeftFoot  -1.23829 -0.444637 5.10515
LeftToes  1.06245e-005 4.65855e-005 -8.18504e-006
95
root  -39.5336 36.3751 -29.4275 -89.1149 -85.4764 125.998
RightUpLeg  -77.3077 -15.617 15.7912
RightLeg  44.8436 -2.95077 -3.45903
RightFoot  -4.88981 0.621529 -11.5644
RightToes  0.00048216 0.542163 -0.142577
Spine  76.8002 -5.77142 7.40497
Spine1  -0.54366 1.08509 -6.5493
HEad  -43.5831 -9.20325 3.71237
LeftShoulder1  7.40831 -29.464 -15.4356
LeftArm  -83.1962 -62.0047 35.1455
LeftForeArm  -3.19295 -10.9248 0.569503
LeftHand  -0.25398 0.0180481 5.50724
RightShoulder  2.17333 16.9843 2.48714
RightArm  -69.7134 47.8765 -26.4104
RightForeArm  -22.4142 4.02303 0.808167
RightHand  -0.520883 10.8212 -4.25083
LeftUpLeg  -73.5178 9.68787 -15.3852
LeftLeg  39.1407 0.13301 0.495958
LeftFoot  -2.13875 -0.346772 4.47113
LeftToes  1.06245e-005 4.65855e-005 -8.18504e-006
96
root  -39.885 36.3468 -29.4437 -94.5032 -85.2744 132.886
RightUpLeg  -78.2786 -14.606 15.6052
RightLeg  45.1392 -3.17778 -3.737
RightFoot  -5.15696 0.566849 -11.0901
RightToes  0.00048216 0.542163 -0.142577
Spine  77.4153 -5.36717 6.82526
Spine1  -0.829482 1.15061 -6.63657
HEad  -44.0442 -8.8657 3.58469
LeftShoulder1  7.16524 -29.0283 -14.9641
LeftArm  -85.1545 -61.6962 35.8566
LeftForeArm  -4.30062 -12.6471 0.299047
LeftHand  -0.25398 0.0180481 5.50724
RightShoulder  1.96242 15.8263 1.96945
RightArm  -73.9129 47.9724 -25.307
RightForeArm  -22.4571 7.4828 0.333481
RightHand  -0.392982 10.785 -3.33773
LeftUpLeg  -74.7551 9.60793 -15.3631
LeftLeg  39.6372 0.445813 0.779328
LeftFoot  -2.76628 -0.30877 4.34148
LeftToes  1.06245e-005 4.65855e-005 -8.18504e-006
97
root  -40.1821 36.3288 -29.4555 -94.9667 -85.0697 134.495
RightUpLeg  -79.1219 -14.003 15.2328
RightLeg  45.6033 -3.46376 -4.10775
RightFoot  -5.52081 0.507952 -10.6804
RightToes  0.00048216 0.542163 -0.142577
Spine  77.6197 -5.30894 6.38925
Spine1  -0.51781 0.736691 -6.5164
HEad  -44.855 -8.06516 3.64751
LeftShoulder1  7.0488 -28.2721 -15.1532
LeftArm  -88.483 -61.4971 36.8605
LeftForeArm  -5.24721 -14.5705 -0.218824
LeftHand  -0.25398 0.0180481 5.50724
RightShoulder  1.71432 14.5555 1.23214
RightArm  -78.3062 48.0924 -23.3196
RightForeArm  -21.0086 11.9567 0.507826
RightHand  -0.151832 10.1486 -1.65118
LeftUpLeg  -75.5896 9.17599 -15.2644
LeftLeg  40.0624 0.881223 1.17932
LeftFoot  -3.13535 -0.291599 4.32625
LeftToes  1.06245e-005 4.65855e-005 -8.18504e-006
98
root  -40.4232 36.326 -29.4567 -94.7827 -85.0197 135.136
RightUpLeg  -79.6144 -13.4525 14.7466
RightLeg  45.9744 -3.866 -4.60238
RightFoot  -5.8265 0.449959 -10.1217
RightToes  0.00048216 0.542163 -0.142577
Spine  77.5599 -5.40818 5.97645
Spine1  0.329037 0.174353 -6.4271
HEad  -45.9424 -6.85653 3.63864
LeftShoulder1  6.83429 -27.2157 -15.2454
LeftArm  -94.3368 -61.1323 37.5481
LeftForeArm  -3.65948 -17.1369 -1.12188
LeftHand  -0.25398 0.0180481 5.50724
RightShoulder  1.61904 13.7733 1.0976
RightArm  -83.267 48.0475 -22.5186
RightForeArm  -18.2618 16.1738 1.94542
RightHand  0.103758 9.72672 0.272559
LeftUpLeg  -76.138 8.75166 -14.9625
LeftLeg  40.356 1.32948 1.59612
LeftFoot  -3.43208 -0.261712 4.0838
LeftToes  1.06245e-005 4.65855e-005 -8.18504e-006
99
root  -40.6117 36.3209 -29.443 -95.5379 -85.01 136.493
RightUpLeg  -79.8784 -12.9373 14.2893
RightLeg  46.1977 -4.19674 -5.00351
RightFoot  -5.98945 0.41057 -9.6179
RightToes  0.00048216 0.542163 -0.142577
Spine  77.2906 -5.47359 5.60811
Spine1  1.39534 -0.199801 -6.43909
HEad  -46.8705 -5.82858 3.42477
LeftShoulder1  6.50757 -26.1218 -14.9644
LeftArm  -101.261 -60.7911 37.4173
LeftForeArm  0.817619 -19.8511 -2.61006
LeftHand  -0.25398 0.0180481 5.50724
RightShoulder  1.73636 13.6736 1.93245
RightArm  -86.8082 47.7489 -23.6739
RightForeArm  -16.3065 19.0528 3.63072
RightHand  0.320446 9.59323 1.95694
LeftUpLeg  -76.5409 8.503 -14.7379
LeftLeg  40.5629 1.64383 1.89428
LeftFoot  -3.68941 -0.241103 3.93771
LeftToes  1.06245e-005 4.65855e-005 -8.18504e-006
